<svg xmlns="http://www.w3.org/2000/svg" xmlns:xlink="http://www.w3.org/1999/xlink" viewBox="0,0,256,256" width="90px" height="90px" fill-rule="nonzero"><g fill="#ffffff" fill-rule="nonzero" stroke="none" stroke-width="1" stroke-linecap="butt" stroke-linejoin="miter" stroke-miterlimit="10" stroke-dasharray="" stroke-dashoffset="0" font-family="none" font-weight="none" font-size="none" text-anchor="none" style="mix-blend-mode: normal"><g transform="scale(8.53333,8.53333)"><path d="M15,3c-0.13457,0.00082 -0.26871,0.01521 -0.40039,0.04297l-0.00195,-0.00195l-9.96875,1.99414l-0.00195,0.00195c-0.94311,0.17905 -1.62599,1.00293 -1.62695,1.96289v16c0.00021,0.9613 0.68429,1.78648 1.62891,1.96484l9.96875,1.99414c0.13238,0.02723 0.26719,0.04097 0.40234,0.04102c1.10457,0 2,-0.89543 2,-2v-20c0,-1.10457 -0.89543,-2 -2,-2zM19,5v4.3418l2,1.42969l5.9375,-4.24219c-0.212,-0.876 -0.9955,-1.5293 -1.9375,-1.5293zM27,8.94336l-5.41992,3.87109c-0.174,0.124 -0.37608,0.18555 -0.58008,0.18555c-0.204,0 -0.40608,-0.06155 -0.58008,-0.18555l-1.41992,-1.01367v6.54297c0.995,-1.415 2.638,-2.34375 4.5,-2.34375c1.33,0 2.549,0.47281 3.5,1.25781zM9.58203,10c1.019,0 1.84561,0.45247 2.47461,1.35547c0.628,0.904 0.94336,2.09522 0.94336,3.57422c0,1.52 -0.32652,2.74283 -0.97852,3.67383c-0.654,0.93 -1.50569,1.39648 -2.55469,1.39648c-1.022,0 -1.856,-0.44956 -2.5,-1.35156c-0.643,-0.901 -0.9668,-2.07644 -0.9668,-3.52344c0,-1.529 0.32742,-2.76498 0.98242,-3.70898c0.655,-0.943 1.51961,-1.41602 2.59961,-1.41602zM9.53125,11.99609c-0.469,0 -0.84119,0.27617 -1.11719,0.82617c-0.276,0.551 -0.41406,1.2805 -0.41406,2.1875c0,0.92 0.13806,1.64659 0.41406,2.18359c0.276,0.535 0.63698,0.80273 1.08398,0.80273c0.46,0 0.8257,-0.2583 1.0957,-0.7793c0.271,-0.52 0.40625,-1.24297 0.40625,-2.16797c0,-0.963 -0.13153,-1.71205 -0.39453,-2.24805c-0.261,-0.537 -0.61922,-0.80469 -1.07422,-0.80469zM23.5,18c-1.93,0 -3.5,1.57 -3.5,3.5c0,1.93 1.57,3.5 3.5,3.5c1.93,0 3.5,-1.57 3.5,-3.5c0,-1.93 -1.57,-3.5 -3.5,-3.5zM23,19h1v2h2v1h-2h-1v-1z"></path></g></g></svg>